<svg xmlns="http://www.w3.org/2000/svg" viewBox="0 0 1200 400"><defs>
<linearGradient id="bg" x1="0" y1="0" x2="0" y2="1"><stop offset="0" stop-color="#0e0c0b"/><stop offset="1" stop-color="#050505"/></linearGradient>
<radialGradient id="glow" cx=".5" cy=".45" r=".6"><stop offset="0" stop-color="#ff8a1f" stop-opacity=".40"/><stop offset="1" stop-color="#ff8a1f" stop-opacity="0"/></radialGradient>
<linearGradient id="win" x1="0" y1="0" x2="0" y2="1"><stop offset="0" stop-color="#1d1d21"/><stop offset="1" stop-color="#101012"/></linearGradient>
<linearGradient id="panel" x1="0" y1="0" x2="1" y2="1"><stop offset="0" stop-color="#3a1d0a"/><stop offset="1" stop-color="#140b05"/></linearGradient>
<linearGradient id="accg" x1="0" y1="0" x2="1" y2="1"><stop offset="0" stop-color="#ff8a1f"/><stop offset="1" stop-color="#e05a00"/></linearGradient>
<radialGradient id="dial"><stop offset="0" stop-color="#3a1d0a"/><stop offset="1" stop-color="#140b05"/></radialGradient>
<linearGradient id="area" x1="0" y1="0" x2="0" y2="1"><stop offset="0" stop-color="#ff8a1f" stop-opacity=".45"/><stop offset="1" stop-color="#ff8a1f" stop-opacity="0"/></linearGradient>
<filter id="blur" x="-50%" y="-50%" width="200%" height="200%"><feGaussianBlur stdDeviation="16"/></filter>
<filter id="shadow" x="-20%" y="-20%" width="140%" height="160%"><feDropShadow dx="0" dy="26" stdDeviation="26" flood-color="#000" flood-opacity=".65"/></filter>
<pattern id="grid" width="60" height="60" patternUnits="userSpaceOnUse"><path d="M60 0H0V60" fill="none" stroke="#fff" stroke-opacity=".04"/></pattern>
</defs><rect width="1200" height="400" fill="url(#bg)"/><rect width="1200" height="400" fill="url(#grid)"/><rect width="1200" height="400" fill="url(#glow)"/><g opacity="1.0"><rect x="260.0" y="70.0" width="680.0" height="78.0" rx="18" fill="url(#win)" fill-opacity="1" stroke="#fff" stroke-opacity=".14"/><circle cx="306.0" cy="109.0" r="16.0" fill="#ff8a1f" fill-opacity="0.9" /><rect x="340.0" y="94.0" width="260.0" height="12.0" rx="6.0" fill="#fff" fill-opacity="0.6" /><rect x="340.0" y="120.0" width="150.0" height="12.0" rx="6.0" fill="#fff" fill-opacity="0.6" /><rect x="780.0" y="92.0" width="110.0" height="34.0" rx="17" fill="#ff8a1f" fill-opacity="0.18" /><rect x="800.0" y="105.0" width="70.0" height="8.0" rx="4" fill="#ff8a1f" fill-opacity="0.9" /></g><g opacity="0.8200000000000001"><rect x="260.0" y="162.0" width="680.0" height="78.0" rx="18" fill="url(#win)" fill-opacity="1" stroke="#fff" stroke-opacity=".14"/><circle cx="306.0" cy="201.0" r="16.0" fill="#7fc6ff" fill-opacity="0.9" /><rect x="340.0" y="186.0" width="260.0" height="12.0" rx="6.0" fill="#fff" fill-opacity="0.6" /><rect x="340.0" y="212.0" width="150.0" height="12.0" rx="6.0" fill="#fff" fill-opacity="0.6" /><rect x="780.0" y="184.0" width="110.0" height="34.0" rx="17" fill="#7fc6ff" fill-opacity="0.18" /><rect x="800.0" y="197.0" width="70.0" height="8.0" rx="4" fill="#7fc6ff" fill-opacity="0.9" /></g><g opacity="0.64"><rect x="260.0" y="254.0" width="680.0" height="78.0" rx="18" fill="url(#win)" fill-opacity="1" stroke="#fff" stroke-opacity=".14"/><circle cx="306.0" cy="293.0" r="16.0" fill="#62ec9f" fill-opacity="0.9" /><rect x="340.0" y="278.0" width="260.0" height="12.0" rx="6.0" fill="#fff" fill-opacity="0.6" /><rect x="340.0" y="304.0" width="150.0" height="12.0" rx="6.0" fill="#fff" fill-opacity="0.6" /><rect x="780.0" y="276.0" width="110.0" height="34.0" rx="17" fill="#62ec9f" fill-opacity="0.18" /><rect x="800.0" y="289.0" width="70.0" height="8.0" rx="4" fill="#62ec9f" fill-opacity="0.9" /></g><circle cx="1010.0" cy="110.0" r="34.0" fill="url(#accg)" fill-opacity="1" /><path d="M1010 94v32M994 110h32" stroke="#fff" stroke-width="5" stroke-linecap="round"/><circle cx="1010.0" cy="110.0" r="52.0" fill="#ff8a1f" fill-opacity="0.2" filter="url(#blur)"/></svg>