<svg xmlns="http://www.w3.org/2000/svg" viewBox="0 0 1200 900"><defs>
<linearGradient id="bg" x1="0" y1="0" x2="0" y2="1"><stop offset="0" stop-color="#0e0c0b"/><stop offset="1" stop-color="#050505"/></linearGradient>
<radialGradient id="glow" cx=".5" cy=".45" r=".6"><stop offset="0" stop-color="#33e8d8" stop-opacity=".40"/><stop offset="1" stop-color="#33e8d8" stop-opacity="0"/></radialGradient>
<linearGradient id="win" x1="0" y1="0" x2="0" y2="1"><stop offset="0" stop-color="#1d1d21"/><stop offset="1" stop-color="#101012"/></linearGradient>
<linearGradient id="panel" x1="0" y1="0" x2="1" y2="1"><stop offset="0" stop-color="#0e3d43"/><stop offset="1" stop-color="#051619"/></linearGradient>
<linearGradient id="accg" x1="0" y1="0" x2="1" y2="1"><stop offset="0" stop-color="#33e8d8"/><stop offset="1" stop-color="#0e7c86"/></linearGradient>
<radialGradient id="dial"><stop offset="0" stop-color="#0e3d43"/><stop offset="1" stop-color="#051619"/></radialGradient>
<linearGradient id="area" x1="0" y1="0" x2="0" y2="1"><stop offset="0" stop-color="#33e8d8" stop-opacity=".45"/><stop offset="1" stop-color="#33e8d8" stop-opacity="0"/></linearGradient>
<filter id="blur" x="-50%" y="-50%" width="200%" height="200%"><feGaussianBlur stdDeviation="16"/></filter>
<filter id="shadow" x="-20%" y="-20%" width="140%" height="160%"><feDropShadow dx="0" dy="26" stdDeviation="26" flood-color="#000" flood-opacity=".65"/></filter>
<pattern id="grid" width="60" height="60" patternUnits="userSpaceOnUse"><path d="M60 0H0V60" fill="none" stroke="#fff" stroke-opacity=".04"/></pattern>
</defs><rect width="1200" height="900" fill="url(#bg)"/><rect width="1200" height="900" fill="url(#grid)"/><rect width="1200" height="900" fill="url(#glow)"/><g filter="url(#shadow)"><rect x="220.0" y="130.0" width="760.0" height="620.0" rx="22" fill="url(#win)" fill-opacity="1" stroke="#fff" stroke-opacity=".12"/></g><circle cx="246.0" cy="154.0" r="5.0" fill="#fff" fill-opacity="0.2" /><circle cx="264.0" cy="154.0" r="5.0" fill="#fff" fill-opacity="0.2" /><circle cx="282.0" cy="154.0" r="5.0" fill="#fff" fill-opacity="0.2" /><rect x="316.0" y="143.0" width="570.0" height="22.0" rx="11" fill="#fff" fill-opacity="0.06" /><rect x="250.0" y="200.0" width="330.0" height="380.0" rx="22" fill="url(#panel)" fill-opacity="1" stroke="#fff" stroke-opacity=".1"/><circle cx="415.0" cy="390.0" r="120.0" fill="#33e8d8" fill-opacity="0.16" filter="url(#blur)"/><line x1="297.4" y1="321.8" x2="415.0" y2="286.3" stroke="#33e8d8" stroke-opacity=".45" stroke-width="2.5"/><line x1="415.0" y1="286.3" x2="532.6" y2="335.4" stroke="#33e8d8" stroke-opacity=".45" stroke-width="2.5"/><line x1="532.6" y1="335.4" x2="347.8" y2="422.8" stroke="#33e8d8" stroke-opacity=".45" stroke-width="2.5"/><line x1="347.8" y1="422.8" x2="475.5" y2="444.6" stroke="#33e8d8" stroke-opacity=".45" stroke-width="2.5"/><line x1="475.5" y1="444.6" x2="415.0" y2="362.7" stroke="#33e8d8" stroke-opacity=".45" stroke-width="2.5"/><line x1="415.0" y1="362.7" x2="297.4" y2="321.8" stroke="#33e8d8" stroke-opacity=".45" stroke-width="2.5"/><circle cx="297.4" cy="321.8" r="11.0" fill="#0c1a1d" fill-opacity="1" stroke="#33e8d8" stroke-width="3"/><circle cx="415.0" cy="286.3" r="11.0" fill="#0c1a1d" fill-opacity="1" stroke="#33e8d8" stroke-width="3"/><circle cx="532.6" cy="335.4" r="11.0" fill="#0c1a1d" fill-opacity="1" stroke="#33e8d8" stroke-width="3"/><circle cx="347.8" cy="422.8" r="11.0" fill="#0c1a1d" fill-opacity="1" stroke="#33e8d8" stroke-width="3"/><circle cx="475.5" cy="444.6" r="11.0" fill="#0c1a1d" fill-opacity="1" stroke="#33e8d8" stroke-width="3"/><circle cx="415.0" cy="362.7" r="18.0" fill="url(#accg)" fill-opacity="1" stroke="#33e8d8" stroke-width="3"/><rect x="247.0" y="482.8" width="336.0" height="43.7" rx="12" fill="#000" fill-opacity="0.35" /><rect x="263.0" y="496.8" width="44.0" height="8.0" rx="4" fill="#33e8d8" fill-opacity="0.7" /><rect x="323.0" y="496.8" width="28.0" height="8.0" rx="4" fill="#fff" fill-opacity="0.7" /><rect x="383.0" y="496.8" width="52.0" height="8.0" rx="4" fill="#0e7c86" fill-opacity="0.7" /><rect x="443.0" y="496.8" width="36.0" height="8.0" rx="4" fill="#fff" fill-opacity="0.7" /><rect x="503.0" y="496.8" width="20.0" height="8.0" rx="4" fill="#33e8d8" fill-opacity="0.7" /><rect x="563.0" y="496.8" width="48.0" height="8.0" rx="4" fill="#fff" fill-opacity="0.7" /><rect x="250.0" y="596.0" width="72.0" height="72.0" rx="14" fill="#fff" fill-opacity="0.06" stroke="#fff" stroke-opacity=".1" stroke-width="2"/><circle cx="286.0" cy="632.0" r="14.0" fill="#33e8d8" fill-opacity="0.8" /><rect x="334.0" y="596.0" width="72.0" height="72.0" rx="14" fill="#fff" fill-opacity="0.06" stroke="#fff" stroke-opacity=".1"/><circle cx="370.0" cy="632.0" r="14.0" fill="#fff" fill-opacity="0.2" /><rect x="418.0" y="596.0" width="72.0" height="72.0" rx="14" fill="#fff" fill-opacity="0.06" stroke="#fff" stroke-opacity=".1"/><circle cx="454.0" cy="632.0" r="14.0" fill="#fff" fill-opacity="0.2" /><rect x="502.0" y="596.0" width="72.0" height="72.0" rx="14" fill="#fff" fill-opacity="0.06" stroke="#fff" stroke-opacity=".1"/><circle cx="538.0" cy="632.0" r="14.0" fill="#fff" fill-opacity="0.2" /><rect x="612.0" y="214.0" width="250.0" height="24.0" rx="12.0" fill="#fff" fill-opacity="0.92" /><rect x="612.0" y="250.0" width="190.0" height="24.0" rx="12.0" fill="#fff" fill-opacity="0.92" /><polygon points="618.0,291.0 620.4,296.7 626.6,297.2 621.9,301.3 623.3,307.3 618.0,304.1 612.7,307.3 614.1,301.3 609.4,297.2 615.6,296.7" fill="#ffcf5a"/><polygon points="641.4,291.0 643.8,296.7 650.0,297.2 645.3,301.3 646.7,307.3 641.4,304.1 636.1,307.3 637.5,301.3 632.8,297.2 639.0,296.7" fill="#ffcf5a"/><polygon points="664.8,291.0 667.2,296.7 673.4,297.2 668.7,301.3 670.1,307.3 664.8,304.1 659.5,307.3 660.9,301.3 656.2,297.2 662.4,296.7" fill="#ffcf5a"/><polygon points="688.2,291.0 690.6,296.7 696.8,297.2 692.1,301.3 693.5,307.3 688.2,304.1 682.9,307.3 684.3,301.3 679.6,297.2 685.8,296.7" fill="#ffcf5a"/><polygon points="711.6,291.0 714.0,296.7 720.2,297.2 715.5,301.3 716.9,307.3 711.6,304.1 706.3,307.3 707.7,301.3 703.0,297.2 709.2,296.7" fill="#ffcf5a"/><rect x="720.0" y="292.0" width="90.0" height="14.0" rx="7" fill="#fff" fill-opacity="0.25" /><rect x="612.0" y="344.0" width="338.0" height="40.0" rx="12" fill="#fff" fill-opacity="0.05" /><rect x="628.0" y="359.0" width="90.0" height="10.0" rx="5" fill="#fff" fill-opacity="0.4" /><rect x="850.0" y="359.0" width="70.0" height="10.0" rx="5" fill="#33e8d8" fill-opacity="0.8" /><rect x="612.0" y="396.0" width="338.0" height="40.0" rx="12" fill="#fff" fill-opacity="0.05" /><rect x="628.0" y="411.0" width="90.0" height="10.0" rx="5" fill="#fff" fill-opacity="0.4" /><rect x="850.0" y="411.0" width="70.0" height="10.0" rx="5" fill="#33e8d8" fill-opacity="0.8" /><rect x="612.0" y="448.0" width="338.0" height="40.0" rx="12" fill="#fff" fill-opacity="0.05" /><rect x="628.0" y="463.0" width="90.0" height="10.0" rx="5" fill="#fff" fill-opacity="0.4" /><rect x="850.0" y="463.0" width="70.0" height="10.0" rx="5" fill="#33e8d8" fill-opacity="0.8" /><rect x="612.0" y="500.0" width="338.0" height="40.0" rx="12" fill="#fff" fill-opacity="0.05" /><rect x="628.0" y="515.0" width="90.0" height="10.0" rx="5" fill="#fff" fill-opacity="0.4" /><rect x="850.0" y="515.0" width="70.0" height="10.0" rx="5" fill="#33e8d8" fill-opacity="0.8" /><rect x="612.0" y="564.0" width="160.0" height="46.0" rx="23" fill="url(#accg)" fill-opacity="1" /><rect x="786.0" y="564.0" width="164.0" height="46.0" rx="23" fill="none" fill-opacity="1" stroke="#fff" stroke-opacity=".3"/><rect x="612.0" y="630.0" width="338.0" height="10.0" rx="5.0" fill="#fff" fill-opacity="0.25" /><rect x="612.0" y="652.0" width="200.0" height="10.0" rx="5.0" fill="#fff" fill-opacity="0.25" /><g filter="url(#shadow)"><rect x="160.0" y="610.0" width="230.0" height="115.0" rx="18" fill="url(#win)" fill-opacity="1" stroke="#fff" stroke-opacity=".14"/></g><rect x="180.0" y="630.0" width="78.2" height="10.0" rx="5" fill="#fff" fill-opacity="0.4" /><rect x="180.0" y="650.0" width="119.6" height="22.0" rx="8" fill="url(#accg)" fill-opacity="1" /><rect x="180.0" y="694.2" width="21.1" height="8.8" rx="3" fill="#33e8d8" fill-opacity="0.35" /><rect x="207.1" y="683.5" width="21.1" height="19.5" rx="3" fill="#33e8d8" fill-opacity="0.43999999999999995" /><rect x="234.3" y="688.8" width="21.1" height="14.2" rx="3" fill="#33e8d8" fill-opacity="0.53" /><rect x="261.4" y="676.5" width="21.1" height="26.5" rx="3" fill="#33e8d8" fill-opacity="0.62" /><rect x="288.6" y="681.8" width="21.1" height="21.2" rx="3" fill="#33e8d8" fill-opacity="0.71" /><rect x="315.7" y="669.4" width="21.1" height="33.6" rx="3" fill="#33e8d8" fill-opacity="0.7999999999999999" /><rect x="342.9" y="662.3" width="21.1" height="40.7" rx="3" fill="#33e8d8" fill-opacity="0.89" /><g filter="url(#shadow)"><rect x="850.0" y="610.0" width="180.0" height="90.0" rx="18" fill="url(#win)" fill-opacity="1" stroke="#fff" stroke-opacity=".14"/></g><rect x="870.0" y="630.0" width="60.0" height="10.0" rx="5" fill="#fff" fill-opacity="0.4" /><rect x="870.0" y="654.0" width="110.0" height="24.0" rx="8" fill="url(#accg)" fill-opacity="1" /></svg>